<?xml version="1.0" encoding="UTF-8" standalone="no"?>
<!-- Created with Inkscape (http://www.inkscape.org/) -->

<svg
   width="122.34835mm"
   height="161.91536mm"
   viewBox="0 0 122.34835 161.91536"
   version="1.1"
   id="svg1"
   inkscape:version="1.3.2 (091e20e, 2023-11-25, custom)"
   sodipodi:docname="flyingchick-text.svg"
   xmlns:inkscape="http://www.inkscape.org/namespaces/inkscape"
   xmlns:sodipodi="http://sodipodi.sourceforge.net/DTD/sodipodi-0.dtd"
   xmlns="http://www.w3.org/2000/svg"
   xmlns:svg="http://www.w3.org/2000/svg">
  <sodipodi:namedview
     id="namedview1"
     pagecolor="#ffffff"
     bordercolor="#000000"
     borderopacity="0.25"
     inkscape:showpageshadow="2"
     inkscape:pageopacity="0.0"
     inkscape:pagecheckerboard="0"
     inkscape:deskcolor="#d1d1d1"
     inkscape:document-units="mm"
     inkscape:zoom="0.36213173"
     inkscape:cx="128.40631"
     inkscape:cy="313.42186"
     inkscape:window-width="1920"
     inkscape:window-height="1009"
     inkscape:window-x="-8"
     inkscape:window-y="-8"
     inkscape:window-maximized="1"
     inkscape:current-layer="layer1" />
  <defs
     id="defs1" />
  <g
     inkscape:label="Layer 1"
     inkscape:groupmode="layer"
     id="layer1"
     transform="translate(-35.089272,-61.118748)">
    <path
       style="fill:none;stroke:#000000;stroke-width:1.2;stroke-dasharray:none;stroke-opacity:1"
       d="m 62.345391,92.41968 c -1.6516,-1.81564 -3.97601,-3.70241 -4.79875,-6.14586 -0.63567,-1.88788 -0.58031,-4.01743 -0.69213,-5.97974 -0.23709,-4.16089 -1.10195,-8.16476 4.01435,-9.75862 2.68952,-0.83786 8.95865,-1.55804 11.39703,0.24916 2.81681,2.08767 4.03852,9.59784 0.96898,12.08407 -1.01587,0.82282 -2.46767,1.03815 -3.73749,1.03815 -3.09207,0 -4.79324,-6.27037 -3.92206,-8.72046 2.4061,-6.7669 13.72843,-10.334173 18.87202,-4.90007 4.28584,4.5279 5.23831,10.99346 1.52268,16.19515 -0.5064,0.70893 -1.20166,1.79498 -2.03024,2.2424 -0.44879,0.24234 -1.13216,0.12458 -1.61497,0.12458 -2.94038,0 -4.66032,-1.91082 -4.66032,-4.77549 0,-0.47758 -0.13312,-1.20848 0,-1.66105 0.76212,-2.59109 3.2487,-4.8698 5.44474,-6.18737 1.05441,-0.63263 2.00898,-1.38781 3.13764,-1.9102 5.38048,-2.49029 11.674488,-0.93882 15.457519,3.52971 2.43183,2.87248 3.21931,7.97989 1.93796,11.54424 -0.84723,2.35675 -3.04558,4.82376 -4.937181,6.43653 -0.62249,0.53073 -5.18183,3.38004 -5.35245,3.07292 -0.64926,-1.16861 -2.472048,-1.9033 -3.552928,-2.69919 -5.58088,-4.10939 -12.50855,-5.81364 -19.37957,-5.81364 -1.30268,0 -5.15471,-0.13908 -6.27529,0.62289 -0.63049,0.42871 -1.08127,1.15616 -1.79954,1.41189 -0.75391,0.26841 -1.60006,0.0438 -2.39937,0.0831 -0.93781,0.046 -1.8488,1.19598 -2.5378,1.66104 -0.64476,0.43519 -1.27435,1.76823 -1.70725,2.45003 -0.98581,1.55259 -2.43664,3.29413 -2.99922,5.06618 -0.15801,0.49769 -0.89317,4.00132 -1.06127,4.1526 -0.266,0.2394 -0.0134,2.69985 -0.27685,3.52971 -0.12516,0.39426 -0.49824,0.88002 -0.59984,1.24578 -0.13484,0.48543 -2.4438,-0.60566 -2.72237,-0.70594 -1.72277,-0.62017 -3.79282,-1.02346 -5.72159,-0.62289 -2.43004,0.50468 -4.61509,2.74245 -5.72159,4.85854 -0.062,0.11856 -1.09576,2.34279 -0.87669,2.40851 1.01137,0.3034 2.45978,-0.24198 3.41449,-0.45678 1.72225,-0.38749 7.98154,0.37283 9.18223,1.45341 0.31507,0.28355 -0.42631,1.20453 -0.50756,1.32883 -1.39538,2.13485 -2.37606,3.62047 -4.93718,4.48481 -1.22415,0.41314 -2.55516,0.29069 -3.82977,0.29069 -0.29911,0 -0.62477,0.0335 -0.92284,0 -0.11047,-0.0124 -0.28438,-0.1873 -0.32299,-0.0831 -0.0867,0.23411 0.0394,0.78871 0.13843,0.99663 1.87866,3.94504 6.41631,4.65091 10.28963,4.65091 1.33337,0 2.54005,-0.13818 3.59906,-0.9551 0.48889,-0.37712 0.8767,-0.92638 0.8767,-0.91357 0,0.667 -0.62054,1.3217 -0.83056,1.95172 -0.37972,1.13912 -0.42772,3.11908 -0.23071,4.36024 0.18612,1.17249 1.92627,3.69875 2.35324,5.1077 0.62561,2.06444 1.8937,4.04136 3.04536,5.85517 6.40114,10.08139 12.78534,12.90455 24.08605,15.11547 3.36962,0.65925 6.76701,1.17002 10.24349,0.87204 4.496488,-0.38539 12.552999,-3.76629 16.611059,-5.89669 1.38869,-0.72903 2.69644,-1.64558 4.10663,-2.32546 4.94914,-2.3861 10.32929,-4.39556 14.71925,-7.76536 6.22782,-4.78058 10.96386,-10.55063 16.05736,-16.44431 4.28942,-4.96327 5.67544,-8.93518 5.67544,-15.57226 0,-6.61306 -0.27213,-8.96537 -5.21402,-13.4129 -1.73865,-1.56472 -3.86932,-2.99426 -6.22915,-3.36361 -2.00497,-0.31381 -4.28664,-0.17003 -6.13687,0.62289 -2.4132,1.03419 -3.93208,2.79759 -5.72159,4.60939 -4.33759,4.39164 -9.45908,10.04177 -9.45908,16.61041 0,2.35033 0.26719,5.89669 3.4145,5.89669 1.14707,0 2.72869,0.23782 3.82977,-0.29068 4.18782,-2.01007 9.77653,-12.08339 12.36602,-16.2782 2.76625,-4.48114 8.90831,-13.92802 5.0756,-19.10197 -1.58121,-2.13455 -5.1152,-2.6106 -7.52112,-2.65766 -1.13373,-0.0222 -2.3827,-0.12253 -3.50678,0.0415 -1.7764,0.25925 -3.52687,1.22774 -5.12175,1.99325 -1.65973,0.79664 -3.43515,1.34963 -5.02946,2.28393 -2.32205,1.36077 -4.39684,3.04187 -6.506,4.69244 -3.07468,2.40618 -6.78951,4.39878 -9.36679,7.39163 -2.13984,2.48488 -3.674771,5.6177 -5.260171,8.47131 -0.71545,1.28776 -4.01067,8.80683 -2.49166,10.17388 2.00088,1.80072 8.029511,-2.71537 9.597501,-3.86192 1.65987,-1.21373 3.46405,-2.49286 5.02946,-3.8204 1.26212,-1.07033 2.49808,-2.21478 3.69135,-3.36361 0.86721,-0.8349 1.67938,-1.69948 2.58395,-2.49156 0.89526,-0.78393 1.74624,-1.61308 2.63008,-2.40851 0.79069,-0.71159 1.64617,-1.36464 2.39938,-2.11782 2.12716,-2.12708 3.86241,-4.61923 5.9523,-6.76874 4.05363,-4.16929 8.04722,-7.39329 9.13608,-13.41291 0.20633,-1.14066 0.37981,-2.72567 -0.50756,-3.57124 -1.72455,-1.64332 -5.96357,-1.94919 -8.16711,-1.45341 -1.72086,0.38718 -3.45472,1.44539 -5.12174,2.03478 -1.60307,0.56677 -3.35581,0.93281 -4.84489,1.78562 -1.73848,0.99563 -3.25508,2.28229 -4.93718,3.3636 -1.82685,1.17436 -3.79304,2.13873 -5.53703,3.44666 -3.64968,2.73716 -7.08352,6.36488 -9.782071,10.00777 -1.6171,2.18301 -3.97261,3.92523 -5.629298,6.10433 -1.17783,1.54923 -2.26546,3.18776 -3.46064,4.73397 -3.3639,4.35186 -9.05708,12.01238 -7.9364,18.06382 0.14471,0.78141 0.85117,1.41254 1.4304,1.86867 3.45137,2.71784 11.974438,-1.05095 15.411378,-2.90682 1.3645,-0.73681 2.907201,-1.51013 4.383471,-1.99325 0.66502,-0.21764 2.55709,-1.59909 2.49166,-1.24578"
       id="path2" />
    <path
       style="fill:none;stroke:#000000;stroke-width:1;stroke-opacity:1"
       d="m 88.830821,157.15875 c 0.0308,0.56752 0.10397,1.13433 0.0923,1.70256 -0.0117,0.56949 -0.35511,1.27224 -0.46142,1.82715 -0.39505,2.0621 -0.59661,4.17375 -0.92284,6.2289 -0.1564,0.98534 -2.4535,0.0866 -3.18378,0.41526 -0.79164,0.35622 -1.65238,1.26332 -2.26095,1.86867 -0.83178,0.82736 -1.35219,1.59629 -1.89182,2.61614 -0.10618,0.20067 -0.33642,0.75273 -0.41528,0.53984 -0.10561,-0.28514 0.45086,-0.65004 0.55371,-0.74747 1.61962,-1.53432 3.77858,-2.79684 6.09072,-2.45003 2.05799,0.30868 2.49166,2.50162 2.49166,4.27718 0,0.62289 0,1.24578 0,1.86867 0,0.12458 0,0.49831 0,0.37373 0,-2.48081 1.30056,-5.18882 4.245048,-4.52633 0.92038,0.20707 1.41629,0.69736 2.03024,1.32883 0.20094,0.20667 0.59984,0.91114 0.59984,0.62289 0,-2.2388 -2.47489,-4.93783 -4.521898,-5.39839 -0.35552,-0.08 -1.72146,0.11179 -1.93795,-0.0831 -0.004,-0.004 0.018,-5.66369 0.0461,-5.68906 0.0114,-0.0103 0.0308,0 0.0461,0 0.18457,-0.20763 0.36913,-0.41526 0.5537,-0.62289"
       id="path4" />
    <path
       style="fill:none;stroke:#000000;stroke-width:1;stroke-opacity:1"
       d="m 102.64778,155.25377 c 0.4734,0.31452 0.97155,0.59465 1.42013,0.94365 0.44957,0.34977 0.80771,1.04513 1.18904,1.46204 1.41707,1.54927 2.98952,2.97303 4.44215,4.46297 0.69647,0.71434 -1.39707,2.01875 -1.57008,2.80067 -0.1876,0.84758 0.0251,2.07983 0.14671,2.92955 0.16613,1.16137 0.47153,2.03819 0.96661,3.0804 0.0974,0.20507 0.40238,0.71963 0.18457,0.6556 -0.29172,-0.0858 -0.25165,-0.74999 -0.26829,-0.89068 -0.262,-2.21556 0.0163,-4.70104 1.67633,-6.3474 1.47756,-1.4654 3.49487,-0.50232 4.91835,0.55896 0.49937,0.37231 0.99875,0.74463 1.49812,1.11694 0.0999,0.0745 0.3995,0.29785 0.29963,0.22338 -1.98889,-1.48282 -3.38255,-4.14411 -1.09145,-6.10875 0.71613,-0.6141 1.40562,-0.71862 2.27884,-0.83339 0.28579,-0.0376 1.089,0.0637 0.85791,-0.10858 -1.79486,-1.33817 -5.43798,-0.9673 -7.03075,0.39852 -0.27663,0.23721 -0.93932,1.44693 -1.22496,1.504 -0.006,8.2e-4 -4.52986,-3.39972 -4.53341,-3.43741 -0.001,-0.0153 0.0184,-0.0247 0.0276,-0.037 -0.0561,-0.27207 -0.11228,-0.54414 -0.16842,-0.81622"
       id="path4-3" />
    <path
       style="fill:none;stroke:#000000;stroke-width:1;stroke-opacity:1"
       d="m 63.037521,106.91226 c -1.43952,2.87046 -1.43156,4.69244 2.26095,4.69244 0.58233,0 1.279,0.0958 1.84567,-0.0415 2.82432,-0.68432 5.08268,-3.98567 4.24506,-6.89332 -1.09225,-3.79151 -6.4907,-3.40855 -9.18223,-2.0763 -3.47282,1.71898 -5.49088,4.82781 -5.49088,8.67894 0,0.49048 -0.12315,1.17813 0.13842,1.61951 1.6496,2.78359 7.22103,2.71587 9.9205,1.7441 3.04511,-1.0962 5.81387,-3.23505 5.81387,-6.60264 0,-1.28309 -0.20382,-2.05458 -1.15354,-3.0314 -0.21726,-0.22345 -1.70746,-0.83052 -1.10741,-0.83052"
       id="path6" />
    <path
       style="fill:none;stroke:#000000;stroke-width:1;stroke-opacity:1"
       d="m 47.441581,129.33631 c -0.50756,0.48447 -0.99555,0.99031 -1.52268,1.45341 -3.02946,2.66149 -3.50642,8.24151 -1.01512,11.50271 0.52373,0.68559 1.43934,1.1697 2.12252,1.70256 0.67143,0.5237 2.3326,1.24433 3.22993,0.70595 2.65533,-1.59314 2.26095,-5.90543 2.26095,-8.09758"
       id="path8" />
    <path
       style="fill:none;stroke:#000000;stroke-width:1;stroke-opacity:1"
       d="m 144.61775,145.89562 c 4.24427,-2.02246 8.14628,-6.17291 9.22837,-10.87982 0.43612,-1.89703 0.29609,-3.78595 0.50756,-5.68906"
       id="path11" />
    <path
       style="fill:none;stroke:#000000;stroke-width:1;stroke-opacity:1"
       d="m 153.43084,147.72276 c 2.30078,-3.20025 3.50678,-6.84153 3.50678,-10.75524"
       id="path12" />
    <path
       style="fill:none;stroke:#000000;stroke-width:1;stroke-opacity:1"
       d="m 137.05049,70.27673 c -0.58447,-0.58136 -1.15072,-1.18162 -1.75339,-1.74409 -2.22585,-2.077372 -7.57659,-2.90137 -10.42806,-1.785619 -0.99633,0.38985 -1.78345,1.059699 -2.58394,1.744089 -0.30915,0.26431 -0.56392,0.60442 -0.92284,0.789 -0.0641,0.033 -0.17468,0.22839 -0.13843,0.1661 0.18136,-0.31159 0.33838,-0.63673 0.50756,-0.9551"
       id="path13" />
    <path
       style="fill:none;stroke:#000000;stroke-width:1;stroke-opacity:1"
       d="m 135.11253,62.968152 c -3.10686,-0.780778 -6.20965,-1.579743 -9.45908,-1.287307 -1.29882,0.116891 -2.66453,1.489964 -2.72237,1.411886 -0.16712,-0.225605 0.33489,-1.236358 0.41528,-1.453412"
       id="path14" />
    <path
       d="m 51.966553,187.83118 q 1.452878,0 2.009297,4.00491 v 0.16006 q 0,0.92114 -0.958284,1.08133 -0.772797,0 -1.051013,-2.48304 l -0.123649,-0.12009 h -0.370946 q -0.680067,1.28156 -0.680067,3.36411 l 0.0927,2.00245 q 1.236487,0 2.689365,-0.84103 0.587338,0 1.081932,1.08132 0,1.64201 -3.462175,2.16266 l 0.772811,6.52797 q 0,0.84103 -1.081933,1.08131 -0.958283,0 -0.958283,-3.84469 l -0.587338,-3.40417 -2.009297,0.40049 q -0.649162,0 -0.772811,-1.24152 0,-1.20146 2.503892,-1.52184 l -0.123649,-2.48305 q 0.494595,-5.92725 3.029405,-5.92725 z m 5.286026,-4.04494 q 0.865541,0.40049 0.865541,1.24152 l 0.309121,15.25866 v 4.92601 q 0,1.36168 -0.896459,1.36168 h -0.401851 q -0.556433,-0.4806 -0.556433,-1.12139 v -4.64567 l -0.278202,-15.85938 q 0,-1.00124 0.958283,-1.16143 z m 4.389541,10.05229 q 1.081932,0 1.483797,6.16755 0.5255,2.84348 0.772811,2.84348 h 0.185473 q 0.772797,-2.5231 0.772797,-5.00613 l -0.185473,-2.76338 q 0.34004,-1.08132 0.958284,-1.08132 1.143756,0 1.143756,5.24641 0.680081,5.44666 0.680081,10.13239 v 1.8823 q 0,8.61052 -3.77131,11.61421 l -0.680068,0.16006 q -1.762013,0 -3.276716,-4.24517 l -0.278203,-2.40295 v -0.12009 q 0,-2.64324 1.143757,-2.64324 l 0.772797,0.64079 -0.0927,2.52308 q 0,1.84224 1.452878,3.72454 h 0.401865 q 1.700175,0 2.503892,-8.41027 l 0.06176,-2.32285 q -0.03095,-4.04493 -0.247297,-5.16632 -1.2365,1.40173 -1.947486,1.40173 -1.576527,0 -2.813014,-10.93337 l -0.0927,-0.0801 q 0,-0.92112 1.051027,-1.16142 z m 7.573499,-8.85081 q 1.174676,0.32038 1.174676,1.36165 -0.309122,1.12138 -0.989189,1.12138 -1.143757,-0.28035 -1.143757,-1.48181 0.309121,-1.00122 0.95827,-1.00122 z m 1.174676,5.60685 q 0.494594,0 0.834635,1.16141 l -0.278216,2.84348 v 1.8823 q 0,3.28403 0.865554,8.61054 -0.309136,0.76091 -1.051027,0.76091 -1.267406,0 -1.669271,-9.61173 v -1.40172 q 0,-4.24519 1.298325,-4.24519 z m 7.01708,1.76215 q 2.627554,0.28036 2.627554,3.32407 l 0.06176,0.52063 -0.06176,6.24765 q 0,1.08131 0.958284,2.92357 v 0.0801 q -0.247311,1.16143 -0.89646,1.16143 -1.916567,-1.04128 -1.916567,-4.40539 v -0.52064 l -0.0927,-0.0801 0.0927,-0.16006 v -0.0801 l 0.0927,-5.52677 q 0,-1.16143 -0.772811,-1.16143 h -0.370946 q -1.545621,0.80099 -1.545621,8.77073 0,2.76337 -1.081933,2.76337 -0.834635,0 -0.86554,-1.36165 v -4.00491 q 0,-7.76949 1.051013,-7.76949 l 0.309122,-0.12009 0.649162,0.12009 q 0.834635,-0.72088 1.762,-0.72088 z m 9.521013,-1.8823 q 1.42196,0 1.42196,1.76217 0.185486,0 0.185486,0.60072 h 0.123649 l -0.123649,1.16142 0.123649,8.08988 -0.185473,6.40785 q 2.782108,0 3.740391,5.28645 0,1.08133 -1.143756,1.24152 -0.525514,0 -1.174662,-3.00367 -0.618257,-1.16142 -1.421973,-1.16142 h -0.123649 q -0.989189,8.53042 -1.731081,8.53042 -0.896459,2.12261 -2.596635,2.12261 -2.503905,-0.76094 -2.503905,-3.24396 v -0.2403 q 0,-3.76459 4.142256,-8.17001 l 0.958284,-0.76091 0.123649,-4.32529 v -1.00122 H 86.61928 q -1.051027,1.72211 -2.009311,1.72211 h -0.185473 q -2.132945,0 -2.442067,-4.24521 v -0.88107 q 0,-5.12627 2.905757,-8.89086 0.896459,-1.00123 2.040216,-1.00123 z m -3.091229,9.37145 v 1.92236 q 0.123648,1.32162 0.463675,1.32162 h 0.309122 q 0.865554,0 2.132959,-8.25009 v -2.00245 q -1.854743,0 -2.905756,7.00856 z m -0.494608,18.26233 q 0.123648,1.00124 0.865554,1.00124 1.483783,0 2.132945,-6.84839 h -0.185473 q -2.813026,3.16388 -2.813026,5.84715 z m 21.762329,-25.83158 1.26741,-0.2403 q 0.77281,0 0.86554,1.24154 0,1.08131 -2.0093,1.40169 -1.2674,1.28158 -1.2674,3.28402 v 1.32163 q 0.61824,4.40537 2.10204,4.40537 h 0.30912 q 0.86554,0 2.59664,-2.12259 h 0.18547 q 0.61824,0 0.98919,1.12137 -0.43277,1.72211 -2.78211,3.12382 -0.43277,0.24029 -1.08193,0.24029 -3.18397,0 -4.14225,-6.48793 v -0.88107 q 0,-4.68573 2.96758,-6.40784 z m 7.88265,-8.53042 q 0.86556,0 0.86556,2.72331 l 0.37094,6.88843 h 0.12365 l 1.54561,-0.76092 q 2.59664,0 3.15307,6.88843 0.21638,1.96238 0.21638,5.76704 v 3.24397 q 0,1.52185 -0.86554,1.52185 h -0.12365 q -0.83462,-0.16006 -0.83462,-1.16141 v -3.7646 q 0,-9.05109 -1.36017,-10.01225 h -0.18546 q -0.92738,0 -1.36015,3.68451 v 2.24273 q 0,6.00735 -0.77279,6.00735 l -0.58734,0.0801 q -0.86554,0 -0.86554,-3.32406 0.0927,-3.52431 0.37093,-5.76705 l -0.64916,-13.1761 q 0,-1.04129 0.95828,-1.08133 z m 8.09904,1.24152 q 1.17467,0.32038 1.17467,1.36165 -0.30912,1.12138 -0.98919,1.12138 -1.14377,-0.28035 -1.14377,-1.48181 0.30913,-1.00122 0.95829,-1.00122 z m 1.17467,5.60685 q 0.49459,0 0.83463,1.16141 l -0.27821,2.84348 v 1.8823 q 0,3.28403 0.86555,8.61054 -0.30914,0.76091 -1.05101,0.76091 -1.26742,0 -1.66927,-9.61173 v -1.40172 q 0,-4.24519 1.29831,-4.24519 z m 6.15154,1.68205 1.26739,-0.2403 q 0.77282,0 0.86555,1.24154 0,1.08131 -2.00931,1.40169 -1.26739,1.28158 -1.26739,3.28402 v 1.32163 q 0.61824,4.40537 2.10203,4.40537 h 0.30912 q 0.86555,0 2.59663,-2.12259 h 0.18549 q 0.61826,0 0.98919,1.12137 -0.43277,1.72211 -2.78211,3.12382 -0.43277,0.24029 -1.08193,0.24029 -3.18396,0 -4.14226,-6.48793 v -0.88107 q 0,-4.68573 2.9676,-6.40784 z m 8.16087,-7.6093 h 0.18548 q 0.40186,0 0.77279,0.88107 l -0.12364,2.72334 v 1.52187 l 0.12364,7.00856 0.0927,0.40049 h 0.0927 q 1.32924,-1.60195 2.31842,-5.6469 l 0.68008,-0.28034 q 0.86554,0.16007 0.86554,1.00121 0,2.60318 -2.87484,7.00858 v 0.28033 q 3.80222,5.727 5.0078,5.727 h 0.18547 l 0.7728,-0.60073 h 0.27822 q 0.64916,0 0.95828,1.12137 0,1.28158 -2.19477,1.76215 -2.19478,0 -5.7188,-5.76704 h -0.27817 l 0.0927,2.16263 v 2.08255 q -0.18547,1.24152 -0.95828,1.24152 -0.86554,-0.24029 -0.86554,-1.24152 v -0.24029 l -0.12365,-4.60563 q -0.34004,0 -0.46371,-1.24152 l 0.40187,-1.00122 -0.18546,-9.01101 v -1.76215 q 0,-3.52432 0.95827,-3.52432 z"
       id="text1"
       style="font-size:22.5062px;font-family:'Just Me Again Down Here';-inkscape-font-specification:'Just Me Again Down Here';stroke:#000000;stroke-width:0"
       aria-label="flying chick" />
  </g>
</svg>
